#!OML:ASF F:\twosubjects\two\Thursday\Session 1\justin.ASF
:FULLY-SPECIFIED
:DEGREES
781
root 9.24617 14.3845 -14.0673 21.1979 30.6114 6.89505
lowerback 36.4829 0.979886 3.84474
upperback 6.52018 3.41942 3.68305
thorax -10.9335 1.55741 0.524965
lowerneck -10.5295 -14.7762 -16.1979
upperneck -7.61043 -18.1971 27.6429
head 3.93994 -8.62771 9.53871
rclavicle 7.15625e-014 -8.42847e-014
rhumerus 42.7938 14.5838 -31.8072
rradius 86.0417
rwrist 25.0715
rhand -7.35078 35.5347
rfingers 7.12502
rthumb 18.5334 6.39756
lclavicle 7.15625e-014 -8.42847e-014
lhumerus 32.5347 -52.2408 94.683
lradius 65.3912
lwrist -4.30356
lhand -17.4662 -296.554
lfingers 7.12502
lthumb 8.78547 266.756
rfemur -50.4321 -23.2129 -14.043
rtibia 53.9446
rfoot -5.94838 -8.81345
rtoes -36.9226
lfemur -51.381 10.9795 -3.64849
ltibia 63.5676
lfoot -31.043 -9.6507
ltoes -33.1303
782
root 9.2397 14.3503 -14.0935 20.9826 30.823 6.83801
lowerback 36.6211 1.02844 3.81742
upperback 6.53729 3.47167 3.62855
thorax -10.9621 1.5817 0.457379
lowerneck -11.0756 -15.0667 -16.1731
upperneck -7.201 -18.6196 27.6447
head 4.23219 -8.77391 9.41055
rclavicle -7.63333e-014 1.27222e-014
rhumerus 42.6737 14.5122 -31.2046
rradius 85.4782
rwrist 25.5388
rhand -4.45473 35.4604
rfingers 7.12502
rthumb 21.3172 6.61285
lclavicle -7.63333e-014 1.27222e-014
lhumerus 33.7099 -53.4266 93.5192
lradius 65.5116
lwrist -1.8211
lhand -21.971 -289.383
lfingers 7.12502
lthumb 4.43673 259.449
rfemur -50.3376 -23.2241 -14.1761
rtibia 54.204
rfoot -5.97222 -8.70258
rtoes -37.3637
lfemur -51.5513 10.9636 -3.5274
ltibia 63.9677
lfoot -31.198 -9.95063
ltoes -33.1915
783
root 9.22895 14.332 -14.12 20.5712 31.0784 6.61902
lowerback 36.93 0.995029 3.85279
upperback 6.61147 3.46486 3.63989
thorax -10.989 1.57877 0.449334
lowerneck -10.5865 -14.9507 -16.1683
upperneck -7.71839 -18.4258 27.8028
head 3.9858 -8.74014 9.53913
rclavicle -3.18055e-015 -5.725e-014
rhumerus 42.8629 14.4404 -30.4562
rradius 85.0677
rwrist 24.8338
rhand -1.69634 34.5757
rfingers 7.12502
rthumb 23.9646 6.05139
lclavicle -3.18055e-015 -5.725e-014
lhumerus 34.2341 -53.3004 93.1871
lradius 65.3081
lwrist -2.18529
lhand -21.7112 -288.211
lfingers 7.12502
lthumb 4.68766 258.283
rfemur -50.0758 -22.9754 -14.2163
rtibia 54.4435
rfoot -6.04758 -8.73391
rtoes -37.6957
lfemur -51.5968 10.9163 -3.2134
ltibia 64.2717
lfoot -31.0728 -10.976
ltoes -31.2913
784
root 9.21676 14.3071 -14.147 20.3778 31.3093 6.76674
lowerback 37.2027 1.17472 3.78775
upperback 6.62081 3.66654 3.53505
thorax -11.0718 1.66979 0.283441
lowerneck -9.86858 -15.0384 -16.1698
upperneck -8.45503 -18.5077 28.223
head 3.73608 -8.86789 9.71864
rclavicle -1.27222e-014 -5.40694e-014
rhumerus 42.4391 13.9556 -29.7718
rradius 84.6845
rwrist 23.1057
rhand 0.871956 32.8026
rfingers 7.12502
rthumb 26.4253 4.62451
lclavicle -1.27222e-014 -5.40694e-014
lhumerus 34.6964 -53.9752 92.9791
lradius 65.2158
lwrist -2.21485
lhand -21.4397 -288.19
lfingers 7.12502
lthumb 4.94979 258.268
rfemur -49.7857 -22.8311 -14.5558
rtibia 54.699
rfoot -6.16512 -8.93814
rtoes -38.4928
lfemur -51.6778 10.7392 -3.24198
ltibia 64.5416
lfoot -31.1023 -11.8112
ltoes -29.3284
785
root 9.20578 14.2677 -14.1812 20.4031 31.5916 6.97966
lowerback 37.3781 1.15402 3.65479
upperback 6.60007 3.60982 3.56328
thorax -11.1699 1.6466 0.401782
lowerneck -10.0263 -15.0748 -16.2144
upperneck -8.59372 -18.501 27.9636
head 3.68574 -8.85884 9.63585
rclavicle -8.74653e-014 4.77083e-014
rhumerus 42.5816 13.7545 -28.9589
rradius 84.5277
rwrist 20.7678
rhand 3.7007 30.7421
rfingers 7.12502
rthumb 29.1299 3.00077
lclavicle -8.74653e-014 4.77083e-014
lhumerus 35.1094 -54.027 93.093
lradius 64.9515
lwrist -2.27083
lhand -21.1397 -289.276
lfingers 7.12502
lthumb 5.2395 259.36
rfemur -49.7193 -22.9462 -14.9038
rtibia 54.9483
rfoot -6.25501 -9.02077
rtoes -39.0818
lfemur -52.0467 10.5576 -3.38652
ltibia 64.807
lfoot -31.3939 -11.4575
ltoes -30.6024
786
root 9.19183 14.2259 -14.2066 20.3699 31.7962 7.18983
lowerback 37.5617 1.16441 3.34713
upperback 6.59378 3.53417 3.66154
thorax -11.2709 1.62024 0.694441
lowerneck -10.2313 -15.0291 -16.3456
upperneck -8.47067 -18.4114 27.5961
head 3.69387 -8.79114 9.53992
rclavicle 3.18055e-014 -3.18055e-014
rhumerus 42.7368 13.6027 -28.2071
rradius 84.6512
rwrist 18.363
rhand 6.11912 29.0075
rfingers 7.12502
rthumb 31.4368 1.69023
lclavicle 3.18055e-014 -3.18055e-014
lhumerus 35.4891 -53.8786 93.2945
lradius 64.6502
lwrist -2.40075
lhand -20.4594 -291.438
lfingers 7.12502
lthumb 5.89632 261.54
rfemur -49.6131 -23.006 -15.3453
rtibia 55.2045
rfoot -6.42137 -8.86442
rtoes -38.4557
lfemur -52.344 10.5631 -3.55819
ltibia 65.1177
lfoot -31.4486 -11.2618
ltoes -31.8392
787
root 9.17852 14.1896 -14.2273 20.3868 32.0106 7.56943
lowerback 37.7053 1.42674 3.29321
upperback 6.63905 3.81714 3.4612
thorax -11.258 1.74999 0.388287
lowerneck -9.62577 -15.1269 -15.7328
upperneck -9.25358 -18.5234 27.5952
head 3.33313 -8.94319 9.48084
rclavicle -8.11041e-014 1.11319e-014
rhumerus 41.7208 12.579 -28.1503
rradius 84.6442
rwrist 16.4248
rhand 7.9659 28.2155
rfingers 7.12502
rthumb 33.1946 1.25657
lclavicle -8.11041e-014 1.11319e-014
lhumerus 36.1689 -54.9984 92.9764
lradius 64.6014
lwrist -2.30928
lhand -20.0409 -292.311
lfingers 7.12502
lthumb 6.3003 262.425
rfemur -49.3526 -23.1519 -15.9667
rtibia 55.4249
rfoot -6.61577 -8.62379
rtoes -37.2228
lfemur -52.5824 10.5279 -3.87913
ltibia 65.4571
lfoot -31.3466 -11.8123
ltoes -30.9404
788
root 9.16763 14.1521 -14.2602 20.555 32.4647 7.64474
lowerback 37.556 1.08104 3.27029
upperback 6.64789 3.39212 3.55176
thorax -11.2034 1.56422 0.675642
lowerneck -9.46033 -15.0934 -16.9814
upperneck -9.23852 -18.4325 28.6362
head 3.5708 -8.87731 10.0376
rclavicle -4.29375e-014 -7.95139e-015
rhumerus 42.3511 12.3778 -28.2879
rradius 84.5152
rwrist 14.6744
rhand 10.3803 28.0133
rfingers 7.12502
rthumb 35.4869 1.57238
lclavicle -4.29375e-014 -7.95139e-015
lhumerus 36.4746 -54.2695 92.8693
lradius 64.5033
lwrist -2.38485
lhand -19.7774 -292.757
lfingers 7.12502
lthumb 6.5547 262.879
rfemur -49.3626 -23.5247 -16.1245
rtibia 55.6079
rfoot -6.65588 -8.68875
rtoes -36.3578
lfemur -53.2991 10.4197 -3.90442
ltibia 65.8053
lfoot -31.4262 -12.151
ltoes -30.7817
789
root 9.1508 14.1341 -14.2897 20.3977 32.9264 7.18883
lowerback 37.5213 0.951982 3.81432
upperback 6.64664 3.43598 3.51655
thorax -11.1552 1.57089 0.337229
lowerneck -9.90382 -15.9137 -18.9382
upperneck -8.46898 -19.6302 31.1267
head 4.73412 -9.34075 10.8743
rclavicle -1.01778e-013 5.725e-014
rhumerus 41.8657 11.6498 -28.8764
rradius 84.7168
rwrist 12.9304
rhand 13.0479 27.7959
rfingers 7.12502
rthumb 38.0111 1.99967
lclavicle -1.01778e-013 5.725e-014
lhumerus 36.9653 -54.5998 92.5192
lradius 64.3236
lwrist -2.35198
lhand -19.6665 -292.988
lfingers 7.12502
lthumb 6.66172 263.113
rfemur -49.4358 -23.5244 -15.7552
rtibia 55.7556
rfoot -6.65231 -9.15328
rtoes -35.9903
lfemur -53.8554 10.5448 -3.44538
ltibia 66.0694
lfoot -31.1865 -13.0468
ltoes -29.4629
790
root 9.13248 14.1326 -14.3099 19.9809 33.2581 6.76292
lowerback 37.714 0.758409 3.82752
upperback 6.62747 3.25318 3.75176
thorax -11.2632 1.48726 0.654521
lowerneck -9.96206 -14.9205 -16.4985
upperneck -9.02055 -18.1822 27.7052
head 3.47559 -8.71816 9.67324
rclavicle 1.17681e-013 1.59028e-015
rhumerus 42.1531 11.5497 -29.0248
rradius 85.0223
rwrist 11.5332
rhand 15.1139 27.8803
rfingers 7.12502
rthumb 39.9588 2.64185
lclavicle 1.17681e-013 1.59028e-015
lhumerus 36.7155 -53.939 92.9313
lradius 64.161
lwrist -2.55603
lhand -19.7122 -292.756
lfingers 7.12502
lthumb 6.61769 262.879
rfemur -49.2423 -23.2015 -15.5603
rtibia 55.8635
rfoot -6.80237 -9.5066
rtoes -35.3637
lfemur -53.9303 10.6713 -3.02019
ltibia 66.1841
lfoot -30.8135 -14.171
ltoes -27.2125
791
root 9.11757 14.1201 -14.3262 19.8142 33.5393 6.84297
lowerback 37.8656 0.662714 3.69452
upperback 6.71757 3.0962 3.75782
thorax -11.2229 1.42457 0.793989
lowerneck -9.65442 -14.8106 -16.345
upperneck -9.43884 -18.0048 27.76
head 3.26249 -8.67747 9.73095
rclavicle 7.95139e-015 -2.06736e-014
rhumerus 42.1051 10.8551 -29.1898
rradius 84.9122
rwrist 11.1129
rhand 15.8474 28.5318
rfingers 7.12502
rthumb 40.6487 3.50477
lclavicle 7.95139e-015 -2.06736e-014
lhumerus 36.8062 -53.8078 92.9603
lradius 64.2166
lwrist -2.73651
lhand -19.7617 -292.18
lfingers 7.12502
lthumb 6.56991 262.302
rfemur -48.9418 -23.0779 -15.8447
rtibia 55.9982
rfoot -6.97679 -9.59703
rtoes -34.8474
lfemur -53.9606 10.4728 -2.99721
ltibia 66.1955
lfoot -30.7207 -14.5149
ltoes -27.3957
792
root 9.09899 14.1065 -14.3367 19.6248 33.8128 6.95152
lowerback 38.0407 0.651067 3.49623
upperback 6.82711 3.02398 3.80141
thorax -11.1746 1.40198 0.972698
lowerneck -9.47523 -14.709 -16.0992
upperneck -9.69654 -17.8541 27.6434
head 3.08831 -8.63508 9.70184
rclavicle -2.22639e-014 4.13472e-014
rhumerus 41.916 10.3436 -29.056
rradius 84.9482
rwrist 11.1321
rhand 16.4873 28.9404
rfingers 7.12502
rthumb 41.2498 4.10394
lclavicle -2.22639e-014 4.13472e-014
lhumerus 37.0411 -53.8582 92.9214
lradius 64.3675
lwrist -2.88968
lhand -19.4359 -292.453
lfingers 7.12502
lthumb 6.88435 262.585
rfemur -48.6035 -22.9726 -16.1756
rtibia 56.1762
rfoot -7.21917 -9.55665
rtoes -32.7566
lfemur -53.8834 10.2109 -2.95688
ltibia 66.1529
lfoot -30.7519 -14.3022
ltoes -28.6595
793
root 9.07306 14.0945 -14.3398 19.4938 33.8916 7.06085
lowerback 38.1193 0.779619 3.06735
upperback 7.14596 3.0325 3.91655
thorax -10.8729 1.42811 1.31872
lowerneck -10.0264 -14.7409 -16.0925
upperneck -9.82764 -17.8082 27.6421
head 3.12945 -8.57891 9.67771
rclavicle 3.81667e-014 0
rhumerus 42.0633 9.5877 -28.9285
rradius 84.804
rwrist 11.8169
rhand 16.9447 29.3972
rfingers 7.12502
rthumb 41.6789 4.7005
lclavicle 3.81667e-014 0
lhumerus 38.4062 -53.9339 91.9318
lradius 64.3933
lwrist -2.44171
lhand -20.2583 -290.734
lfingers 7.12502
lthumb 6.09044 260.842
rfemur -48.4881 -22.8301 -16.4042
rtibia 56.4223
rfoot -7.38161 -9.52768
rtoes -30.6436
lfemur -53.7793 10.2845 -2.99173
ltibia 66.1868
lfoot -30.9456 -13.9696
ltoes -30.0825
794
root 9.04919 14.0796 -14.347 19.6798 33.7428 7.33275
lowerback 38.0303 1.08643 2.68512
upperback 7.22281 3.23308 3.76649
thorax -10.7687 1.5299 1.27621
lowerneck -9.88585 -14.7601 -15.814
upperneck -10.238 -17.7984 27.7426
head 2.97545 -8.61104 9.6881
rclavicle 2.8625e-014 9.54166e-015
rhumerus 41.34 8.94495 -29.1724
rradius 84.6229
rwrist 12.7117
rhand 16.6541 27.8172
rfingers 7.12502
rthumb 41.4063 3.03135
lclavicle 2.8625e-014 9.54166e-015
lhumerus 39.4975 -54.7349 91.025
lradius 64.1499
lwrist -1.4365
lhand -22.459 -286.207
lfingers 7.12502
lthumb 3.96558 256.264
rfemur -48.8065 -22.9078 -16.479
rtibia 56.7101
rfoot -7.17858 -9.5993
rtoes -32.1681
lfemur -53.9093 10.5541 -3.23703
ltibia 66.3211
lfoot -30.9647 -14.2046
ltoes -30.5213
